<svg xmlns="http://www.w3.org/2000/svg" width="514.147" height="367.366" viewBox="0 0 514.147 367.366">
  <g id="Resume_builder" data-name="Resume builder" transform="translate(0 -82.498)">
    <g id="Group_323" data-name="Group 323" transform="translate(0 126.01)">
      <path id="Path_317" data-name="Path 317" d="M1446.147,560.852c0,.084-115.141.252-257.074.252-142.016,0-257.074-.084-257.074-.252,0-.084,115.141-.252,257.074-.252s257.074.084,257.074.252Z" transform="translate(-932 -238.019)" fill="#081623"/>
      <path id="Path_318" data-name="Path 318" d="M1382.034,176.5H1016.622a11.434,11.434,0,0,0-11.422,11.422V446a11.434,11.434,0,0,0,11.422,11.422h140.253s8.9,27.631-18.728,41.908h131.1s-31.242-10.75-23.179-41.908h135.969A11.434,11.434,0,0,0,1393.456,446V187.922a11.434,11.434,0,0,0-11.422-11.422Z" transform="translate(-943.724 -176.5)" fill="#445964"/>
      <path id="Path_319" data-name="Path 319" d="M1239.9,478.29c4.955,7.139-2.771,14.865-9.91,9.91a3.889,3.889,0,0,1-.588-.588c-4.955-7.055,2.855-14.865,9.91-9.91a1.957,1.957,0,0,1,.588.588Z" transform="translate(-979.383 -224.492)" fill="#081623"/>
      <path id="Path_320" data-name="Path 320" d="M1388.359,411.139H1012.7V190.346a8.154,8.154,0,0,1,8.146-8.146h359.366a8.154,8.154,0,0,1,8.146,8.146Z" transform="translate(-944.925 -177.413)" fill="#fff"/>
      <path id="Path_321" data-name="Path 321" d="M1388.359,201.164H1012.7V189.826a7.706,7.706,0,0,1,7.726-7.726H1382.06a6.29,6.29,0,0,1,6.3,6.3Z" transform="translate(-944.925 -177.397)" fill="#ebebeb"/>
      <path id="Path_322" data-name="Path 322" d="M1331.8,511.052c0,.084-51.986.252-116.149.252s-116.149-.084-116.149-.252c0-.084,51.986-.252,116.149-.252s116.149.084,116.149.252Z" transform="translate(-958.828 -230.043)" fill="#081623"/>
    </g>
    <g id="Group_328" data-name="Group 328" transform="translate(145 82.498)">
      <rect id="Rectangle_488" data-name="Rectangle 488" width="224.3" height="263.369" transform="translate(0.247 13.489)" fill="#fff"/>
      <rect id="Rectangle_489" data-name="Rectangle 489" width="30.515" height="28.706" transform="translate(194.031 13.489)" fill="#f4f4f4"/>
      <rect id="Rectangle_490" data-name="Rectangle 490" width="2.385" height="2.385" transform="translate(205.464 22.866)" fill="#fff"/>
      <rect id="Rectangle_491" data-name="Rectangle 491" width="2.385" height="2.385" transform="translate(208.837 22.866)" fill="#fff"/>
      <rect id="Rectangle_492" data-name="Rectangle 492" width="2.385" height="2.385" transform="translate(212.21 22.866)" fill="#fff"/>
      <rect id="Rectangle_493" data-name="Rectangle 493" width="2.385" height="2.385" transform="translate(205.464 26.485)" fill="#fff"/>
      <rect id="Rectangle_494" data-name="Rectangle 494" width="2.385" height="2.385" transform="translate(208.837 26.485)" fill="#fff"/>
      <rect id="Rectangle_495" data-name="Rectangle 495" width="2.385" height="2.385" transform="translate(212.21 26.485)" fill="#fff"/>
      <rect id="Rectangle_496" data-name="Rectangle 496" width="2.385" height="2.385" transform="translate(205.464 30.104)" fill="#fff"/>
      <rect id="Rectangle_497" data-name="Rectangle 497" width="2.385" height="2.385" transform="translate(208.837 30.104)" fill="#fff"/>
      <rect id="Rectangle_498" data-name="Rectangle 498" width="2.385" height="2.385" transform="translate(212.21 30.104)" fill="#fff"/>
      <rect id="Rectangle_499" data-name="Rectangle 499" width="224.3" height="13.325" transform="translate(0.247 0.247)" fill="#dfdfdf"/>
      <path id="Path_323" data-name="Path 323" d="M1120.542,126.421a2.221,2.221,0,1,1-2.221-2.221,2.265,2.265,0,0,1,2.221,2.221Z" transform="translate(-1111.987 -119.594)" fill="#fff"/>
      <path id="Path_324" data-name="Path 324" d="M1128.142,126.421a2.221,2.221,0,1,1-2.221-2.221,2.265,2.265,0,0,1,2.221,2.221Z" transform="translate(-1113.336 -119.594)" fill="#fff"/>
      <path id="Path_325" data-name="Path 325" d="M1135.742,126.421a2.221,2.221,0,1,1-2.221-2.221,2.323,2.323,0,0,1,2.221,2.221Z" transform="translate(-1114.685 -119.594)" fill="#fff"/>
      <path id="Path_326" data-name="Path 326" d="M1141.991,164.6v7.649h-1.809v-3.126h-3.455v3.126H1135V164.6h1.727v3.043h3.455V164.6Z" transform="translate(-1115.342 -126.764)" fill="#081623"/>
      <path id="Path_327" data-name="Path 327" d="M1151.169,170.119h-4.442a1.493,1.493,0,0,0,1.645,1.152,1.865,1.865,0,0,0,1.48-.576l.9.987a3.159,3.159,0,0,1-2.385.9c-2.056,0-3.372-1.234-3.372-3.043a2.959,2.959,0,0,1,3.126-3.043,2.892,2.892,0,0,1,3.043,3.043v.576Zm-4.524-.987h2.879a1.356,1.356,0,0,0-1.4-1.234,1.5,1.5,0,0,0-1.481,1.234Z" transform="translate(-1117.117 -127.102)" fill="#081623"/>
      <rect id="Rectangle_500" data-name="Rectangle 500" width="1.727" height="8.143" transform="translate(35.122 37.342)" fill="#081623"/>
      <rect id="Rectangle_501" data-name="Rectangle 501" width="1.727" height="8.143" transform="translate(38.411 37.342)" fill="#081623"/>
      <path id="Path_328" data-name="Path 328" d="M1161.3,169.643a3.212,3.212,0,1,1,3.208,3.043,2.982,2.982,0,0,1-3.208-3.043Zm4.688,0h0a1.519,1.519,0,0,0-1.481-1.645,1.474,1.474,0,0,0-1.48,1.645,1.519,1.519,0,0,0,1.48,1.645,1.474,1.474,0,0,0,1.481-1.645Z" transform="translate(-1120.01 -127.119)" fill="#081623"/>
      <path id="Path_329" data-name="Path 329" d="M1170.2,171.345a.95.95,0,0,1,.987-.987,1.02,1.02,0,0,1,1.069.987.973.973,0,0,1-1.069.987.95.95,0,0,1-.987-.987Zm0-6.745h2.056l-.329,5.017h-1.316Z" transform="translate(-1121.589 -126.764)" fill="#081623"/>
      <path id="Path_330" data-name="Path 330" d="M1173.029,184.047c0,.082-8.554.247-19.165.247s-19.164-.082-19.164-.247c0-.082,8.554-.247,19.164-.247,10.528,0,19.165.082,19.165.247Z" transform="translate(-1115.288 -130.172)" fill="#081623"/>
      <path id="Path_331" data-name="Path 331" d="M1207.146,191.847c0,.082-16.286.247-36.273.247s-36.272-.082-36.272-.247,16.2-.247,36.272-.247,36.273.165,36.273.247Z" transform="translate(-1115.271 -131.557)" fill="#081623"/>
      <path id="Path_332" data-name="Path 332" d="M1219.308,200.647c0,.082-18.836.247-42.113.247s-42.195-.082-42.195-.247,18.918-.247,42.195-.247c23.277.082,42.113.165,42.113.247Z" transform="translate(-1115.342 -133.118)" fill="#dfdfdf"/>
      <path id="Path_333" data-name="Path 333" d="M1219.308,206.547c0,.082-18.836.247-42.113.247s-42.195-.082-42.195-.247,18.918-.247,42.195-.247c23.277.082,42.113.164,42.113.247Z" transform="translate(-1115.342 -134.166)" fill="#dfdfdf"/>
      <path id="Path_334" data-name="Path 334" d="M1190.64,226.98a5.84,5.84,0,1,1,5.84-5.84,5.759,5.759,0,0,1-5.84,5.84Z" transform="translate(-1124.18 -135.763)" fill="#2fbe6e"/>
      <rect id="Rectangle_502" data-name="Rectangle 502" width="1.234" height="3.948" transform="translate(63.827 84.061)" fill="#fff"/>
      <path id="Path_335" data-name="Path 335" d="M1189.34,219.881a.74.74,0,1,0-.74-.74.737.737,0,0,0,.74.74Z" transform="translate(-1124.855 -136.313)" fill="#fff"/>
      <path id="Path_336" data-name="Path 336" d="M1192.269,222.674c0-.576.247-.9.74-.9.412,0,.658.329.658.9v2.056h1.234v-2.468c0-1.069-.576-1.563-1.4-1.563a1.307,1.307,0,0,0-1.151.658v-.576H1191.2v3.948h1.151a12.239,12.239,0,0,1-.083-2.056Z" transform="translate(-1125.317 -136.721)" fill="#fff"/>
      <path id="Path_337" data-name="Path 337" d="M1157.04,227.044a5.923,5.923,0,1,1,5.84-5.922,5.88,5.88,0,0,1-5.84,5.922Z" transform="translate(-1118.217 -135.745)" fill="#2fbe6e"/>
      <path id="Path_338" data-name="Path 338" d="M1158.853,221.685h-2.385v.74h1.645a1.519,1.519,0,0,1-1.563,1.316,1.892,1.892,0,1,1,0-3.784,1.674,1.674,0,0,1,1.234.494l.576-.411a2.419,2.419,0,0,0-1.81-.74,2.55,2.55,0,1,0,0,5.1,2.34,2.34,0,0,0,2.3-2.468Z" transform="translate(-1118.714 -136.473)" fill="#fff"/>
      <path id="Path_339" data-name="Path 339" d="M1163.45,222.087h-.987V221.1h-.576v.987h-.987v.658h.987v.9h.576v-.9h.987Z" transform="translate(-1119.938 -136.792)" fill="#fff"/>
      <path id="Path_340" data-name="Path 340" d="M1174.157,226.98h0a5.84,5.84,0,0,1,0-11.68h0a5.84,5.84,0,0,1,0,11.68Z" transform="translate(-1121.27 -135.763)" fill="#2fbe6e"/>
      <path id="Path_341" data-name="Path 341" d="M1174.708,219.176h1.316a2.917,2.917,0,0,1,.576.082.991.991,0,0,1,.658.658c.082.082.082.247.082.576v2.632a2.931,2.931,0,0,1-.082.576,1.1,1.1,0,0,1-.247.411,1.8,1.8,0,0,1-.411.247c-.082.082-.247.082-.576.082h-2.632a2.915,2.915,0,0,1-.576-.082c-.165-.082-.247-.164-.411-.247a1.808,1.808,0,0,1-.247-.411c-.082-.082-.082-.247-.082-.576v-2.632a2.922,2.922,0,0,1,.082-.576,1.09,1.09,0,0,1,.247-.411,1.794,1.794,0,0,1,.411-.247c.082-.082.247-.082.576-.082Zm0-.576h-1.316a1.643,1.643,0,0,0-.74.164.951.951,0,0,0-.576.411,1.479,1.479,0,0,0-.411.576,1.966,1.966,0,0,0-.164.74v2.632a1.644,1.644,0,0,0,.164.74.954.954,0,0,0,.411.576,3.484,3.484,0,0,0,.576.411,5.234,5.234,0,0,0,.74.164h2.632a1.641,1.641,0,0,0,.74-.164.951.951,0,0,0,.576-.411,3.473,3.473,0,0,0,.411-.576,1.959,1.959,0,0,0,.165-.74v-2.632a1.639,1.639,0,0,0-.165-.74.951.951,0,0,0-.411-.576,1.475,1.475,0,0,0-.576-.411,1.963,1.963,0,0,0-.74-.164Z" transform="translate(-1121.82 -136.349)" fill="#fff"/>
      <path id="Path_342" data-name="Path 342" d="M1175.045,220.4a1.645,1.645,0,1,0,1.645,1.645,1.77,1.77,0,0,0-1.645-1.645Zm0,2.714h0a1.069,1.069,0,1,1,1.069-1.069,1.149,1.149,0,0,1-1.069,1.069Z" transform="translate(-1122.157 -136.668)" fill="#fff"/>
      <path id="Path_343" data-name="Path 343" d="M1177.723,220.311a.411.411,0,1,1-.411-.411.389.389,0,0,1,.411.411Z" transform="translate(-1122.778 -136.579)" fill="#fff"/>
      <path id="Path_344" data-name="Path 344" d="M1140.14,227.08a5.84,5.84,0,1,1,5.84-5.84,5.862,5.862,0,0,1-5.84,5.84Z" transform="translate(-1115.217 -135.781)" fill="#2fbe6e"/>
      <path id="Path_345" data-name="Path 345" d="M1140.223,225.274h1.4v-3.537h.988l.082-1.152h-1.07v-.74c0-.247.082-.411.329-.411h.741V218.2h-.987c-1.07,0-1.563.494-1.563,1.4v.987h-.74v1.152h.74v3.537Z" transform="translate(-1116.122 -136.278)" fill="#fff"/>
      <path id="Path_346" data-name="Path 346" d="M1195.783,239.147c0,.082-14.723.247-32.9.247s-32.983-.082-32.983-.247,14.723-.247,32.983-.247c18.178,0,32.9.165,32.9.247Z" transform="translate(-1114.437 -139.952)" fill="#081623"/>
      <rect id="Rectangle_503" data-name="Rectangle 503" width="201.022" height="155.702" transform="translate(13.49 120.745)" fill="#f4f4f4"/>
      <path id="Path_347" data-name="Path 347" d="M1198.807,287.847c0,.082-6.087.247-13.653.247s-13.654-.082-13.654-.247,6.087-.247,13.654-.247,13.653.082,13.653.247Z" transform="translate(-1121.82 -148.595)" fill="#2fbe6e"/>
      <path id="Path_348" data-name="Path 348" d="M1317.908,287.847c0,.082-6.169.247-13.654.247-7.567,0-13.654-.082-13.654-.247s6.087-.247,13.654-.247,13.654.082,13.654.247Z" transform="translate(-1142.958 -148.595)" fill="#2fbe6e"/>
      <path id="Path_349" data-name="Path 349" d="M1317.908,326.147c0,.082-6.169.247-13.654.247-7.567,0-13.654-.082-13.654-.247s6.087-.247,13.654-.247,13.654.082,13.654.247Z" transform="translate(-1142.958 -155.393)" fill="#2fbe6e"/>
      <path id="Path_350" data-name="Path 350" d="M1208.351,300.147c0,.082-7.9.247-17.684.247s-17.766-.082-17.766-.247,7.9-.247,17.766-.247c9.788,0,17.684.082,17.684.247Z" transform="translate(-1122.069 -150.778)" fill="#445964"/>
      <path id="Path_351" data-name="Path 351" d="M1207.05,322.747c0,.082-7.9.247-17.684.247s-17.766-.082-17.766-.247,7.9-.247,17.766-.247c9.788,0,17.684.165,17.684.247Z" transform="translate(-1121.837 -154.789)" fill="#081623"/>
      <path id="Path_352" data-name="Path 352" d="M1169.345,300.023a.777.777,0,0,1-.822.823.824.824,0,0,1-.823-.823.884.884,0,0,1,.823-.822.777.777,0,0,1,.822.822Z" transform="translate(-1121.146 -150.654)" fill="#081623"/>
      <path id="Path_353" data-name="Path 353" d="M1169.345,322.623a.824.824,0,0,1-.822.822.884.884,0,0,1-.823-.822.824.824,0,0,1,.823-.823.777.777,0,0,1,.822.823Z" transform="translate(-1121.146 -154.665)" fill="#081623"/>
      <path id="Path_354" data-name="Path 354" d="M1169.245,341.723a.825.825,0,0,1-.823.823.884.884,0,0,1-.822-.823.823.823,0,0,1,1.645,0Z" transform="translate(-1121.128 -158.055)" fill="#081623"/>
      <path id="Path_355" data-name="Path 355" d="M1168.547,316.976a65.9,65.9,0,0,1-.247-7.238,48.825,48.825,0,0,1,.247-7.238c.164,0,.247,3.208.247,7.238a48.824,48.824,0,0,1-.247,7.238Z" transform="translate(-1121.252 -151.24)" fill="#081623"/>
      <path id="Path_356" data-name="Path 356" d="M1168.547,336.152a31.75,31.75,0,0,1-.247-5.017,22.652,22.652,0,0,1,.247-4.935,22.652,22.652,0,0,1,.247,4.935,23.14,23.14,0,0,1-.247,5.017Z" transform="translate(-1121.252 -155.446)" fill="#081623"/>
      <path id="Path_357" data-name="Path 357" d="M1187.747,303.747a62.746,62.746,0,0,1-7.073.247,46.564,46.564,0,0,1-7.074-.247,62.787,62.787,0,0,1,7.074-.247c3.866.082,7.073.165,7.073.247Z" transform="translate(-1122.193 -151.417)" fill="#445964"/>
      <path id="Path_358" data-name="Path 358" d="M1208.3,310.747c0,.082-7.649.247-17.191.247-9.459,0-17.108-.082-17.108-.247,0-.082,7.65-.247,17.108-.247,9.541.082,17.191.165,17.191.247Z" transform="translate(-1122.264 -152.66)" fill="#dfdfdf"/>
      <path id="Path_359" data-name="Path 359" d="M1198.676,316.647c0,.082-5.511.247-12.338.247s-12.338-.082-12.338-.247,5.511-.247,12.338-.247,12.338.082,12.338.247Z" transform="translate(-1122.263 -153.707)" fill="#dfdfdf"/>
      <path id="Path_360" data-name="Path 360" d="M1207.9,313.647c0,.082-7.649.247-17.108.247s-17.19-.082-17.19-.247c0-.082,7.649-.247,17.19-.247,9.459,0,17.108.082,17.108.247Z" transform="translate(-1122.193 -153.174)" fill="#dfdfdf"/>
      <path id="Path_361" data-name="Path 361" d="M1208.3,329.047c0,.082-7.649.247-17.191.247-9.459,0-17.108-.082-17.108-.247s7.65-.247,17.108-.247c9.541,0,17.191.164,17.191.247Z" transform="translate(-1122.264 -155.908)" fill="#dfdfdf"/>
      <path id="Path_362" data-name="Path 362" d="M1198.676,334.847c0,.165-5.511.247-12.338.247s-12.338-.082-12.338-.247c0-.082,5.511-.247,12.338-.247,6.827.082,12.338.164,12.338.247Z" transform="translate(-1122.263 -156.937)" fill="#dfdfdf"/>
      <path id="Path_363" data-name="Path 363" d="M1207.9,331.847c0,.082-7.649.247-17.108.247s-17.19-.082-17.19-.247,7.649-.247,17.19-.247c9.459.082,17.108.164,17.108.247Z" transform="translate(-1122.193 -156.405)" fill="#dfdfdf"/>
      <path id="Path_364" data-name="Path 364" d="M1207.05,342.047c0,.082-7.9.247-17.684.247s-17.766-.082-17.766-.247,7.9-.247,17.766-.247c9.788.082,17.684.164,17.684.247Z" transform="translate(-1121.837 -158.215)" fill="#081623"/>
      <path id="Path_365" data-name="Path 365" d="M1208.3,348.347c0,.082-7.649.247-17.191.247-9.459,0-17.108-.082-17.108-.247s7.65-.247,17.108-.247c9.541.082,17.191.164,17.191.247Z" transform="translate(-1122.264 -159.333)" fill="#dfdfdf"/>
      <path id="Path_366" data-name="Path 366" d="M1198.676,354.147c0,.082-5.511.247-12.338.247s-12.338-.082-12.338-.247,5.511-.247,12.338-.247c6.827.082,12.338.164,12.338.247Z" transform="translate(-1122.263 -160.362)" fill="#dfdfdf"/>
      <path id="Path_367" data-name="Path 367" d="M1207.9,351.147c0,.164-7.649.247-17.108.247s-17.19-.082-17.19-.247c0-.082,7.649-.247,17.19-.247,9.459.082,17.108.165,17.108.247Z" transform="translate(-1122.193 -159.83)" fill="#dfdfdf"/>
      <path id="Path_368" data-name="Path 368" d="M1198.807,367.247c0,.082-6.087.247-13.653.247s-13.654-.082-13.654-.247,6.087-.247,13.654-.247,13.653.082,13.653.247Z" transform="translate(-1121.82 -162.687)" fill="#2fbe6e"/>
      <path id="Path_369" data-name="Path 369" d="M1208.351,379.447c0,.082-7.9.247-17.684.247s-17.766-.082-17.766-.247,7.9-.247,17.766-.247c9.788.082,17.684.164,17.684.247Z" transform="translate(-1122.069 -164.853)" fill="#445964"/>
      <path id="Path_370" data-name="Path 370" d="M1207.05,402.047c0,.082-7.9.247-17.684.247s-17.766-.082-17.766-.247c0-.082,7.9-.247,17.766-.247,9.788.082,17.684.164,17.684.247Z" transform="translate(-1121.837 -168.864)" fill="#081623"/>
      <path id="Path_371" data-name="Path 371" d="M1169.345,379.323a.824.824,0,0,1-.822.822.884.884,0,0,1-.823-.822.822.822,0,1,1,1.645,0Z" transform="translate(-1121.146 -164.729)" fill="#081623"/>
      <path id="Path_372" data-name="Path 372" d="M1169.345,401.923a.777.777,0,0,1-.822.823.823.823,0,1,1,.822-.823Z" transform="translate(-1121.146 -168.74)" fill="#081623"/>
      <path id="Path_373" data-name="Path 373" d="M1169.245,421.122a.825.825,0,0,1-.823.823.884.884,0,0,1-.822-.823.824.824,0,0,1,.822-.822.777.777,0,0,1,.823.822Z" transform="translate(-1121.128 -172.148)" fill="#081623"/>
      <path id="Path_374" data-name="Path 374" d="M1168.547,396.294a65.9,65.9,0,0,1-.247-7.238,47.266,47.266,0,0,1,.247-7.156,47.264,47.264,0,0,1,.247,7.156c0,4.03-.083,7.238-.247,7.238Z" transform="translate(-1121.252 -165.332)" fill="#081623"/>
      <path id="Path_375" data-name="Path 375" d="M1168.547,415.535a31.749,31.749,0,0,1-.247-5.017,23.735,23.735,0,0,1,.247-5.017,23.14,23.14,0,0,1,.247,5.017,23.733,23.733,0,0,1-.247,5.017Z" transform="translate(-1121.252 -169.521)" fill="#081623"/>
      <path id="Path_376" data-name="Path 376" d="M1187.747,383.147a62.756,62.756,0,0,1-7.073.247,46.555,46.555,0,0,1-7.074-.247c0-.164,3.125-.247,7.074-.247a46.57,46.57,0,0,1,7.073.247Z" transform="translate(-1122.193 -165.51)" fill="#445964"/>
      <path id="Path_377" data-name="Path 377" d="M1208.3,390.147c0,.082-7.649.247-17.191.247-9.459,0-17.108-.082-17.108-.247s7.65-.247,17.108-.247c9.541,0,17.191.082,17.191.247Z" transform="translate(-1122.264 -166.752)" fill="#dfdfdf"/>
      <path id="Path_378" data-name="Path 378" d="M1198.676,395.947c0,.082-5.511.247-12.338.247s-12.338-.082-12.338-.247,5.511-.247,12.338-.247,12.338.164,12.338.247Z" transform="translate(-1122.263 -167.781)" fill="#dfdfdf"/>
      <path id="Path_379" data-name="Path 379" d="M1207.9,392.947c0,.082-7.649.247-17.108.247s-17.19-.082-17.19-.247,7.649-.247,17.19-.247c9.459,0,17.108.165,17.108.247Z" transform="translate(-1122.193 -167.249)" fill="#dfdfdf"/>
      <path id="Path_380" data-name="Path 380" d="M1208.3,408.447c0,.082-7.649.247-17.191.247-9.459,0-17.108-.082-17.108-.247s7.65-.247,17.108-.247c9.541,0,17.191.082,17.191.247Z" transform="translate(-1122.264 -170)" fill="#dfdfdf"/>
      <path id="Path_381" data-name="Path 381" d="M1198.676,414.247c0,.082-5.511.247-12.338.247s-12.338-.082-12.338-.247,5.511-.247,12.338-.247,12.338.082,12.338.247Z" transform="translate(-1122.263 -171.029)" fill="#dfdfdf"/>
      <path id="Path_382" data-name="Path 382" d="M1207.9,411.247c0,.082-7.649.247-17.108.247s-17.19-.082-17.19-.247c0-.082,7.649-.247,17.19-.247,9.459,0,17.108.082,17.108.247Z" transform="translate(-1122.193 -170.497)" fill="#dfdfdf"/>
      <path id="Path_383" data-name="Path 383" d="M1207.05,421.447c0,.082-7.9.247-17.684.247s-17.766-.082-17.766-.247,7.9-.247,17.766-.247c9.788,0,17.684.082,17.684.247Z" transform="translate(-1121.837 -172.307)" fill="#081623"/>
      <path id="Path_384" data-name="Path 384" d="M1208.3,427.747c0,.082-7.649.247-17.191.247-9.459,0-17.108-.082-17.108-.247s7.65-.247,17.108-.247c9.541,0,17.191.165,17.191.247Z" transform="translate(-1122.264 -173.425)" fill="#dfdfdf"/>
      <path id="Path_385" data-name="Path 385" d="M1198.676,433.547c0,.082-5.511.247-12.338.247s-12.338-.082-12.338-.247,5.511-.247,12.338-.247c6.827.082,12.338.164,12.338.247Z" transform="translate(-1122.263 -174.455)" fill="#dfdfdf"/>
      <path id="Path_386" data-name="Path 386" d="M1207.9,430.547c0,.082-7.649.247-17.108.247s-17.19-.082-17.19-.247,7.649-.247,17.19-.247c9.459.082,17.108.164,17.108.247Z" transform="translate(-1122.193 -173.922)" fill="#dfdfdf"/>
      <path id="Path_387" data-name="Path 387" d="M1252.447,420.9c-.082,0-.247-34.545-.247-77.152s.082-77.152.247-77.152.247,34.546.247,77.152-.083,77.152-.247,77.152Z" transform="translate(-1136.143 -144.868)" fill="#445964"/>
      <path id="Path_388" data-name="Path 388" d="M1336.582,299.047c0,.082-10.857.247-24.182.247s-24.1-.082-24.1-.247c0-.082,10.775-.247,24.1-.247s24.182.082,24.182.247Z" transform="translate(-1142.55 -150.583)" fill="#445964"/>
      <path id="Path_389" data-name="Path 389" d="M1337.37,303.747c0,.082-10.693.247-23.935.247s-23.935-.082-23.935-.247c0-.082,10.693-.247,23.935-.247,13.242.082,23.935.165,23.935.247Z" transform="translate(-1142.763 -151.417)" fill="#445964"/>
      <path id="Path_390" data-name="Path 390" d="M1317.908,399.447c0,.165-6.169.247-13.654.247-7.567,0-13.654-.082-13.654-.247,0-.082,6.087-.247,13.654-.247,7.567.082,13.654.164,13.654.247Z" transform="translate(-1142.958 -168.403)" fill="#2fbe6e"/>
      <path id="Path_391" data-name="Path 391" d="M1336.582,410.647c0,.082-10.857.247-24.182.247s-24.1-.082-24.1-.247,10.775-.247,24.1-.247c13.325.082,24.182.164,24.182.247Z" transform="translate(-1142.55 -170.39)" fill="#445964"/>
      <path id="Path_392" data-name="Path 392" d="M1337.157,415.447c0,.082-10.94.247-24.428.247s-24.429-.082-24.429-.247,10.94-.247,24.429-.247,24.428.082,24.428.247Z" transform="translate(-1142.55 -171.242)" fill="#445964"/>
      <path id="Path_393" data-name="Path 393" d="M1332.846,341.219H1291.31a1.81,1.81,0,1,1,0-3.619h41.537a1.826,1.826,0,0,1,1.81,1.81,1.726,1.726,0,0,1-1.81,1.81Z" transform="translate(-1142.763 -157.469)" fill="#dfdfdf"/>
      <path id="Path_394" data-name="Path 394" d="M1313.682,341.219H1291.31a1.81,1.81,0,0,1,0-3.619h22.373a1.81,1.81,0,1,1,0,3.619Z" transform="translate(-1142.763 -157.469)" fill="#2fbe6e"/>
      <path id="Path_395" data-name="Path 395" d="M1332.846,351.2H1291.31a1.825,1.825,0,0,1-1.81-1.81,1.9,1.9,0,0,1,1.81-1.892h41.537a1.845,1.845,0,0,1,1.81,1.892,1.726,1.726,0,0,1-1.81,1.81Z" transform="translate(-1142.763 -159.227)" fill="#dfdfdf"/>
      <path id="Path_396" data-name="Path 396" d="M1306.462,351.2H1291.41a1.826,1.826,0,0,1-1.809-1.81,1.9,1.9,0,0,1,1.809-1.892h15.052a1.845,1.845,0,0,1,1.81,1.892,1.826,1.826,0,0,1-1.81,1.81Z" transform="translate(-1142.781 -159.227)" fill="#2fbe6e"/>
      <path id="Path_397" data-name="Path 397" d="M1332.846,361.2H1291.31a1.844,1.844,0,0,1-1.81-1.892,1.826,1.826,0,0,1,1.81-1.81h41.537a1.826,1.826,0,0,1,1.81,1.81,1.749,1.749,0,0,1-1.81,1.892Z" transform="translate(-1142.763 -161.001)" fill="#dfdfdf"/>
      <path id="Path_398" data-name="Path 398" d="M1326.842,361.2H1291.31a1.845,1.845,0,0,1-1.809-1.892,1.826,1.826,0,0,1,1.809-1.81h35.533a1.826,1.826,0,0,1,1.809,1.81,1.844,1.844,0,0,1-1.809,1.892Z" transform="translate(-1142.763 -161.001)" fill="#2fbe6e"/>
      <path id="Path_399" data-name="Path 399" d="M1332.846,371.219H1291.31a1.81,1.81,0,1,1,0-3.619h41.537a1.826,1.826,0,0,1,1.81,1.81,1.726,1.726,0,0,1-1.81,1.809Z" transform="translate(-1142.763 -162.794)" fill="#dfdfdf"/>
      <path id="Path_400" data-name="Path 400" d="M1321.843,371.219H1291.41a1.81,1.81,0,1,1,0-3.619h30.433a1.81,1.81,0,0,1,0,3.619Z" transform="translate(-1142.781 -162.794)" fill="#2fbe6e"/>
      <path id="Path_401" data-name="Path 401" d="M1282.9,340.747a20.321,20.321,0,0,1-3.948.247,14.763,14.763,0,0,1-3.948-.247c0-.164,1.727-.247,3.948-.247a14.769,14.769,0,0,1,3.948.247Z" transform="translate(-1140.19 -157.984)" fill="#445964"/>
      <path id="Path_402" data-name="Path 402" d="M1282.9,349.747a20.315,20.315,0,0,1-3.948.247,14.763,14.763,0,0,1-3.948-.247c0-.165,1.727-.247,3.948-.247a20.321,20.321,0,0,1,3.948.247Z" transform="translate(-1140.19 -159.582)" fill="#445964"/>
      <path id="Path_403" data-name="Path 403" d="M1282.9,358.747a20.326,20.326,0,0,1-3.948.247,14.767,14.767,0,0,1-3.948-.247c0-.165,1.727-.247,3.948-.247a32.742,32.742,0,0,1,3.948.247Z" transform="translate(-1140.19 -161.179)" fill="#445964"/>
      <path id="Path_404" data-name="Path 404" d="M1282.9,367.847a20.316,20.316,0,0,1-3.948.247,14.768,14.768,0,0,1-3.948-.247c0-.165,1.727-.247,3.948-.247a14.759,14.759,0,0,1,3.948.247Z" transform="translate(-1140.19 -162.794)" fill="#445964"/>
      <path id="Path_405" data-name="Path 405" d="M1147.6,281.943l6.909-3.043,6.333,3.043-6.416,3.29Z" transform="translate(-1117.578 -147.051)" fill="#2fbe6e"/>
      <path id="Path_406" data-name="Path 406" d="M1149.382,284.6l-.082,4.113h10.2v-4.03l-4.935,2.468Z" transform="translate(-1117.88 -148.063)" fill="#2fbe6e"/>
      <rect id="Rectangle_504" data-name="Rectangle 504" width="10.199" height="6.498" transform="translate(130.04 134.563)" fill="#2fbe6e"/>
      <rect id="Rectangle_505" data-name="Rectangle 505" width="4.113" height="2.056" transform="translate(133.166 141.061)" fill="#2fbe6e"/>
      <path id="Path_407" data-name="Path 407" d="M1278.712,292.347a26.978,26.978,0,0,1-4.606.247,19.659,19.659,0,0,1-4.606-.247,19.656,19.656,0,0,1,4.606-.247,41.213,41.213,0,0,1,4.606.247Z" transform="translate(-1139.214 -149.394)" fill="#2fbe6e"/>
      <rect id="Rectangle_506" data-name="Rectangle 506" width="10.199" height="6.498" transform="translate(27.637 200.282)" fill="#2fbe6e"/>
      <rect id="Rectangle_507" data-name="Rectangle 507" width="4.113" height="2.056" transform="translate(30.68 206.78)" fill="#2fbe6e"/>
      <path id="Path_408" data-name="Path 408" d="M1154.112,372.347a26.96,26.96,0,0,1-4.606.247,19.654,19.654,0,0,1-4.606-.247,26.975,26.975,0,0,1,4.606-.247,19.658,19.658,0,0,1,4.606.247Z" transform="translate(-1117.099 -163.593)" fill="#2fbe6e"/>
      <path id="Path_409" data-name="Path 409" d="M1279.03,326.79l-.9-1.645a4.42,4.42,0,0,0,.658-2.3,4.442,4.442,0,0,0-8.883,0,4.423,4.423,0,0,0,4.442,4.442,4.488,4.488,0,0,0,2.714-.9h0Z" transform="translate(-1139.285 -154.062)" fill="#2fbe6e"/>
      <path id="Path_410" data-name="Path 410" d="M1276.864,395.553a2.579,2.579,0,0,0,1.481-2.3,2.391,2.391,0,1,0-4.771,0,2.706,2.706,0,0,0,1.48,2.385c-3.619.576-3.454,4.524-3.454,4.524h8.636c0-.082.247-4.03-3.372-4.606Z" transform="translate(-1139.586 -166.894)" fill="#2fbe6e"/>
      <path id="Path_411" data-name="Path 411" d="M1335.647,118.847c0,1.645.082,112.109.247,276.694v.165H1111.1V118.6h.164c135.3.164,222.9.247,224.382.247-1.481,0-89.078.082-224.3.164l.164-.164V395.54l-.247-.247h224.3l-.164.247c.164-164.585.247-275.049.247-276.694Z" transform="translate(-1111.1 -118.6)" fill="#081623"/>
      <path id="Path_423" data-name="Path 423" d="M1279.867,194.2s-9.13,3.126-10.282,9.212c-1.151,6.169-2.385,14.394-2.385,14.394l13.818-.74Z" transform="translate(-1138.806 -132.018)" fill="#2fbe6e"/>
      <path id="Path_424" data-name="Path 424" d="M1289.515,190.6l-8.554,3.29-1.809,43.676L1278,252.124h42.853l-5.182-58.563-13.325-2.8Z" transform="translate(-1140.722 -131.379)" fill="#2fbe6e"/>
      <path id="Path_425" data-name="Path 425" d="M1333.958,215.814s-2.138-20.481-10.857-21.714l-3.7,13.571v8.143Z" transform="translate(-1148.07 -132)" fill="#2fbe6e"/>
      <path id="Path_426" data-name="Path 426" d="M1282.721,223.865s3.125-1.481,4.606-.987,7.567,3.372,7.567,3.372l-11.515,3.784-2.879-3.208Z" transform="translate(-1141.166 -137.09)" fill="#fed2b1"/>
      <path id="Path_427" data-name="Path 427" d="M1319.786,243.173a6.935,6.935,0,0,0-4.195-3.7,22.2,22.2,0,0,0-5.675-.987c-5.347-.411-10.775-.822-16.122-1.316a15.155,15.155,0,0,0-6.087.329c-3.455,1.152-6.416,4.524-8.307,7.649v.74c1.645,1.234,3.948,1.234,5.922.74s3.866-1.4,5.84-1.809c3.784-.823,7.649.165,11.433,1.069,3.372.9,6.827,1.81,10.2,2.632,1.81.494,3.948.9,5.511-.082a4.382,4.382,0,0,0,1.48-5.264Z" transform="translate(-1140.971 -139.618)" fill="#081623" opacity="0.25"/>
      <path id="Path_428" data-name="Path 428" d="M1268.5,222.74s-.411,14.97,2.879,17.766c3.208,2.8,5.182,2.3,8.719,1.809,3.537-.411,23.771-10.61,23.771-10.61l-2.139-7.238-21.056,3.866-.082-6.333Z" transform="translate(-1139.032 -136.952)" fill="#fed2b1"/>
      <path id="Path_429" data-name="Path 429" d="M1328.22,220.5s.9,16.779,0,18.918-4.277,4.442-7.978,3.866-23.442-6-23.442-6l6.909-7.238,14.23-.329-.9-9.212Z" transform="translate(-1144.059 -136.686)" fill="#fed2b1"/>
      <path id="Path_430" data-name="Path 430" d="M1319.182,222.7c-3.948-2.879-10.281,1.727-10.281,1.727v.74l1.563,5.182,9.624-.411c0,.082,1.645-5.346-.9-7.238Z" transform="translate(-1146.207 -136.908)" fill="#fed2b1"/>
      <path id="Path_431" data-name="Path 431" d="M1317.5,231.682a13,13,0,0,1-2.3.164c-1.481.082-3.537.165-5.922.247l.082-.082c-.905.576-1.81,1.234-2.879,1.892-2.714,1.727-5.346,3.043-7.238,4.03-.9.493-1.727.822-2.221,1.069a4.487,4.487,0,0,1-.823.329,2.8,2.8,0,0,1,.823-.494c.575-.329,1.316-.74,2.221-1.151,1.81-.987,4.359-2.385,7.073-4.113.987-.658,1.974-1.234,2.879-1.81l.082-.082h.082c2.385-.082,4.441-.082,5.922-.082a9.62,9.62,0,0,1,2.221.082Z" transform="translate(-1143.952 -138.656)" fill="#eb996e"/>
      <path id="Path_432" data-name="Path 432" d="M1321.387,220.5a10.492,10.492,0,0,1,.329,2.139c.164,1.316.247,3.126.411,5.182,0,.658.082,1.234.082,1.809l-.082-.164a12.806,12.806,0,0,1,2.8,2.879,11.781,11.781,0,0,1,.823,1.316,23.373,23.373,0,0,0-3.866-3.866l-.082-.082v-.082c-.082-.576-.082-1.151-.164-1.809-.164-1.974-.247-3.866-.247-5.182a7.774,7.774,0,0,1,0-2.139Z" transform="translate(-1148.412 -136.686)" fill="#eb996e"/>
      <path id="Path_433" data-name="Path 433" d="M1296.735,226.6a14.109,14.109,0,0,1-2.8.658c-1.727.329-4.112.822-6.745,1.316-1.645.329-3.208.576-4.606.823l.082-.082c-.987,1.152-1.809,2.139-2.385,2.879-.576.658-.987,1.069-.987.987-.082,0,.247-.411.823-1.152s1.316-1.727,2.3-2.961l.082-.082h.082c1.316-.247,2.879-.576,4.524-.823,2.632-.494,5.1-.9,6.827-1.152a28.116,28.116,0,0,1,2.8-.411Z" transform="translate(-1140.95 -137.765)" fill="#eb996e"/>
      <path id="Path_434" data-name="Path 434" d="M1283.165,222a12.944,12.944,0,0,1,.247,3.208,16.263,16.263,0,0,1-.164,3.208,12.92,12.92,0,0,1-.247-3.208,16.234,16.234,0,0,1,.164-3.208Z" transform="translate(-1141.609 -136.952)" fill="#eb996e"/>
      <path id="Path_435" data-name="Path 435" d="M1281.589,207.4a52.1,52.1,0,0,1,.9,6.827c.411,3.784.576,6.909.411,6.909-.082,0-.494-3.043-.9-6.827-.329-3.866-.576-6.909-.411-6.909Z" transform="translate(-1141.35 -134.361)" fill="#081623"/>
      <path id="Path_436" data-name="Path 436" d="M1322.147,205.5a62.593,62.593,0,0,1-.082,6.745,40.5,40.5,0,0,1-.576,6.745,62.559,62.559,0,0,1,.082-6.745c.164-3.784.411-6.745.576-6.745Z" transform="translate(-1148.431 -134.024)" fill="#081623"/>
      <path id="Path_437" data-name="Path 437" d="M1314.97,160.226c-.987-1.069-2.221-2.139-2.55-3.537-.329-1.316.165-2.879-.576-4.03-.823-1.4-3.043-1.563-4.03-2.879-.494-.658-.658-1.481-1.152-2.139a4.116,4.116,0,0,0-3.783-1.152c-1.316.165-2.632.74-4.03.823-1.892.247-3.866-.329-5.675.247-1.974.658-3.126,2.468-4.359,4.277l-1.645,2.056a11.713,11.713,0,0,1-1.069.987,12.42,12.42,0,0,0-2.139,1.481,3.348,3.348,0,0,0,.411,4.853,3.456,3.456,0,0,0-2.3,3.537,8.043,8.043,0,0,0,.74,2.385,3.656,3.656,0,0,1,.164,2.468,1.563,1.563,0,0,1-1.974.987,3.744,3.744,0,0,0,2.138,2.468,2.551,2.551,0,0,1-1.48.74c1.645,3.537,5.84,5.346,9.788,5.182,3.866-.082,7.567-1.727,11.186-3.29l10.446-3.043c.9-.247,1.234-1.4,1.234-2.3a6.4,6.4,0,0,1,0-2.8c.411-1.234,1.81-1.974,2.221-3.126a5.015,5.015,0,0,0-1.563-4.195Z" transform="translate(-1141.255 -123.542)" fill="#081623"/>
      <path id="Path_438" data-name="Path 438" d="M1291.88,172.172a59.016,59.016,0,0,1-2.138-7.156,15,15,0,0,1,.411-7.4c.082-.411,1.151-2.8,1.563-2.714.247,0-.329,2.221-.247,2.467a12.925,12.925,0,0,1,1.645,7.4,28.45,28.45,0,0,1-1.234,7.4Z" transform="translate(-1142.758 -125.042)" fill="#081623"/>
      <path id="Path_439" data-name="Path 439" d="M1301.581,149.8h-.576c-6.251.247-9.623,5.675-9.212,11.926l.164,21.632a7.323,7.323,0,0,0,14.641.165c0-1.152.082-1.974.082-1.974s6-.823,6.251-6.827c.083-2.879-.164-8.883-.411-14.312a11.33,11.33,0,0,0-10.939-10.61Z" transform="translate(-1143.164 -124.138)" fill="#fed2b1"/>
      <path id="Path_440" data-name="Path 440" d="M1308.232,187.85a14.723,14.723,0,0,1-7.732-2.55s1.81,4.442,7.814,4.03Z" transform="translate(-1144.716 -130.438)" fill="#eb996e"/>
      <path id="Path_441" data-name="Path 441" d="M1313.445,168.523a.824.824,0,0,1-.822.823.777.777,0,0,1-.823-.823.884.884,0,0,1,.823-.823.824.824,0,0,1,.822.823Z" transform="translate(-1146.721 -127.315)" fill="#081623"/>
      <path id="Path_442" data-name="Path 442" d="M1314.568,165.487a6.99,6.99,0,0,0-1.645-.411,12.382,12.382,0,0,0-1.727.329c-.082-.082.082-.247.411-.493a2.353,2.353,0,0,1,1.4-.411,1.941,1.941,0,0,1,1.316.493.765.765,0,0,1,.247.494Z" transform="translate(-1146.611 -126.747)" fill="#081623"/>
      <path id="Path_443" data-name="Path 443" d="M1302.945,168.523a.824.824,0,0,1-.823.823.777.777,0,0,1-.823-.823.884.884,0,0,1,.823-.823.824.824,0,0,1,.823.823Z" transform="translate(-1144.857 -127.315)" fill="#081623"/>
      <path id="Path_444" data-name="Path 444" d="M1303.568,165.687a6.986,6.986,0,0,0-1.645-.411,5.938,5.938,0,0,0-1.727.329c-.082-.082.082-.247.411-.494a2.352,2.352,0,0,1,1.4-.411,1.941,1.941,0,0,1,1.316.494q.37.37.247.493Z" transform="translate(-1144.658 -126.782)" fill="#081623"/>
      <path id="Path_445" data-name="Path 445" d="M1308.027,172.913a4.087,4.087,0,0,1,1.48-.247c.247,0,.494-.082.494-.247.082-.164-.082-.411-.164-.74-.247-.576-.411-1.152-.658-1.81a33.205,33.205,0,0,1-1.481-4.771,34.3,34.3,0,0,1,1.809,4.606c.247.658.411,1.234.658,1.81a1.131,1.131,0,0,1,.082.9.546.546,0,0,1-.411.329.741.741,0,0,1-.411.082c-.822.164-1.4.164-1.4.082Z" transform="translate(-1145.992 -126.853)" fill="#081623"/>
      <path id="Path_446" data-name="Path 446" d="M1304.765,175.3c.164,0,.082.987.987,1.727a3.866,3.866,0,0,0,1.892.74c0,.082-.247.247-.74.247a2.629,2.629,0,0,1-1.563-.576,2.3,2.3,0,0,1-.74-1.481c0-.411.082-.658.164-.658Z" transform="translate(-1145.443 -128.663)" fill="#081623"/>
      <path id="Path_447" data-name="Path 447" d="M1303.373,161.153c-.082.247-.987.082-2.138.247-1.069.082-1.974.411-2.139.164-.082-.082.082-.329.411-.576a3.5,3.5,0,0,1,1.563-.494,3.312,3.312,0,0,1,1.645.247c.575.082.74.329.658.411Z" transform="translate(-1144.463 -126.032)" fill="#081623"/>
      <path id="Path_448" data-name="Path 448" d="M1314.221,161.787c-.165.165-.823-.082-1.563-.082-.74-.082-1.4.082-1.563-.082-.082-.082.082-.329.329-.494a2.456,2.456,0,0,1,1.234-.329,2.171,2.171,0,0,1,1.234.411c.329.247.411.411.329.576Z" transform="translate(-1146.592 -126.09)" fill="#081623"/>
      <path id="Path_449" data-name="Path 449" d="M1291.43,169.649c-.082-.082-4.113-1.316-4.031,2.8s4.113,3.208,4.113,3.126-.082-5.922-.082-5.922Z" transform="translate(-1142.39 -127.619)" fill="#fed2b1"/>
      <path id="Path_450" data-name="Path 450" d="M1290.392,174.326a.36.36,0,0,1-.247.082.675.675,0,0,1-.576,0,1.738,1.738,0,0,1-.822-1.563,3.068,3.068,0,0,1,.164-.987.813.813,0,0,1,.576-.576.288.288,0,0,1,.411.247c.083.082,0,.164.083.247a.36.36,0,0,0,.082-.247c0-.082-.082-.165-.165-.247a.615.615,0,0,0-.411-.082c-.329,0-.576.329-.74.658a2.625,2.625,0,0,0-.247,1.152,1.794,1.794,0,0,0,1.069,1.81.814.814,0,0,0,.658-.082c.165-.247.165-.329.165-.411Z" transform="translate(-1142.585 -127.936)" fill="#eb996e"/>
      <path id="Path_451" data-name="Path 451" d="M1309.369,153.527c.658-.411-1.316-2.468-3.043-3.208-2.468-1.069-6.251-1.727-8.554-.987a9.851,9.851,0,0,0-6.333,4.771,16.052,16.052,0,0,0-1.645,8.307,6.055,6.055,0,0,0,.576,2.468c.576.9,1.727,1.48,1.645,2.714a2.019,2.019,0,0,0,.412,1.234c.74.823,1.645,0,2.056-.74a10.885,10.885,0,0,0,.987-5.346,10.732,10.732,0,0,0-.329-3.948,20.58,20.58,0,0,1-.74-2.056,2.526,2.526,0,0,1,.247-2.056c.082-.082.164-.247.329-.329a4.181,4.181,0,0,1,4.195-.9c2.3.822,6.333,1.974,7.321,1.151a6.072,6.072,0,0,0,1.809-1.892Z" transform="translate(-1142.81 -123.999)" fill="#081623"/>
      <path id="Path_452" data-name="Path 452" d="M1298.575,148.473a8.769,8.769,0,0,1,6.909.247,4.854,4.854,0,0,1,2.55,2.714,2.736,2.736,0,0,1-1.316,3.208l-.082.082a5.974,5.974,0,0,1-4.606-.165c-1.48-.493-2.8-1.4-4.277-1.892a8.142,8.142,0,0,0-4.853-.082,13.5,13.5,0,0,1,5.675-4.113Z" transform="translate(-1143.367 -123.797)" fill="#081623"/>
    </g>
    <g id="Group_327" data-name="Group 327" transform="translate(70.892 133.393)">
      <path id="Path_453" data-name="Path 453" d="M1053.054,513.079l-10.714,17.262s13.946,16.667,12.33,20.068L1020.4,530.851l15.561-27.551Z" transform="translate(-1020.272 -235.831)" fill="#445964"/>
      <path id="Path_454" data-name="Path 454" d="M1034.459,526.285a1.575,1.575,0,0,0-1.871,1.02,1.542,1.542,0,0,0,1.02,1.871,1.6,1.6,0,0,0,1.956-1.106,1.776,1.776,0,0,0-1.276-1.871Z" transform="translate(-1022.086 -239.258)" fill="#dfdfdf"/>
      <rect id="Rectangle_509" data-name="Rectangle 509" width="35.087" height="22.674" transform="translate(0 292.178)" fill="none"/>
      <path id="Path_455" data-name="Path 455" d="M1046.263,535.149c-.085.17-1.02-.255-2.126-.17s-1.956.51-2.041.34c-.17-.085.68-.935,2.041-1.02s2.3.765,2.126.85Z" transform="translate(-1023.515 -240.469)" fill="#081623"/>
      <path id="Path_456" data-name="Path 456" d="M1049.565,539.431c-.085.17-.936.085-1.871.425-1.02.34-1.531,1.02-1.7.935s.256-1.106,1.531-1.531c1.1-.51,2.126,0,2.041.17Z" transform="translate(-1024.096 -241.179)" fill="#081623"/>
      <path id="Path_457" data-name="Path 457" d="M1049.691,545.5c-.17-.085.085-1.021,1.021-1.7s1.956-.6,1.956-.425-.765.425-1.53.935c-.766.6-1.276,1.276-1.446,1.191Z" transform="translate(-1024.648 -241.811)" fill="#081623"/>
      <path id="Path_458" data-name="Path 458" d="M1048.756,530.05c-.17.085-.765-.6-1.785-1.02-.935-.51-1.871-.6-1.871-.765s1.02-.425,2.211.17c1.105.51,1.53,1.446,1.445,1.616Z" transform="translate(-1023.968 -239.536)" fill="#081623"/>
      <path id="Path_459" data-name="Path 459" d="M1053.553,523.125l-1.191,20.324s20.238,7.993,20.408,11.735l-39.371-.85.51-31.633Z" transform="translate(-1022.217 -238.734)" fill="#445964"/>
      <path id="Path_460" data-name="Path 460" d="M1041.2,544.7a1.57,1.57,0,0,0,.68,3.061,1.7,1.7,0,0,0,1.19-1.956,1.654,1.654,0,0,0-2.041-1.021Z" transform="translate(-1023.214 -242.024)" fill="#dfdfdf"/>
      <rect id="Rectangle_510" data-name="Rectangle 510" width="39.962" height="4.534" transform="translate(10.72 311.937)" fill="none"/>
      <path id="Path_461" data-name="Path 461" d="M1055.849,546.766c0,.17-.935.255-1.956.85-.935.6-1.446,1.36-1.7,1.275-.17,0,.17-1.191,1.36-1.871s2.3-.425,2.3-.255Z" transform="translate(-1025.023 -242.307)" fill="#081623"/>
      <path id="Path_462" data-name="Path 462" d="M1060.846,548.887c.085.17-.765.51-1.445,1.276s-.85,1.616-1.02,1.616-.255-1.106.6-2.126c.766-.85,1.871-.936,1.871-.765Z" transform="translate(-1025.938 -242.642)" fill="#081623"/>
      <path id="Path_463" data-name="Path 463" d="M1063.862,554.225c-.17.085-.425-.935.085-1.956s1.446-1.446,1.531-1.275-.51.765-.935,1.53c-.426.85-.426,1.7-.681,1.7Z" transform="translate(-1026.743 -242.963)" fill="#081623"/>
      <path id="Path_464" data-name="Path 464" d="M1055.481,541.165c-.085.17-.935-.085-2.041-.085s-1.955.34-2.041.17.765-.85,2.041-.85a2.471,2.471,0,0,1,2.041.765Z" transform="translate(-1024.91 -241.383)" fill="#081623"/>
      <path id="Path_465" data-name="Path 465" d="M1086.439,370.9s-2.636,64.286-4.251,70.239-35.035,67.093-35.035,67.093L1027,498.283l26.7-64.542V371.5Z" transform="translate(-1021.26 -216.017)" fill="#081623"/>
      <path id="Path_466" data-name="Path 466" d="M1035.392,370.137s-2.126,15.647-1.021,17.262a48.48,48.48,0,0,1,2.976,6.8l-1.615,50.256-4.932,73.9h23.47l10.034-65.137a56.912,56.912,0,0,0,4.932-11.14c1.361-5.187,9.354-56.463,9.354-56.463V365.8Z" transform="translate(-1021.828 -215.254)" fill="#081623"/>
      <path id="Path_467" data-name="Path 467" d="M1085.371,374.1v.34c-.085.255-.085.68-.17,1.105-.17,1.02-.34,2.466-.68,4.252-.6,3.741-1.446,9.1-2.466,15.732s-2.3,14.541-3.741,23.3c-.681,4.337-1.361,8.929-2.211,13.776a84.706,84.706,0,0,1-3.656,14.541c-1.786,4.847-4.252,9.184-5.1,13.946-1.02,4.677-1.7,9.269-2.381,13.691-1.36,8.759-2.381,16.667-3.317,23.3s-1.616,11.99-2.211,15.732c-.255,1.871-.51,3.316-.68,4.252a7.051,7.051,0,0,0-.17,1.105,1.342,1.342,0,0,0-.085.34,2.387,2.387,0,0,1,.085-.425,8.9,8.9,0,0,1,.17-1.105c.17-1.02.34-2.466.595-4.252.51-3.742,1.19-9.1,2.041-15.732s1.871-14.541,3.146-23.385c.681-4.422,1.361-9.014,2.381-13.691.85-4.847,3.4-9.269,5.187-14.031a81.87,81.87,0,0,0,3.657-14.456c.85-4.762,1.53-9.354,2.3-13.691,1.446-8.759,2.721-16.667,3.827-23.3s2.041-11.99,2.636-15.646c.34-1.871.6-3.316.765-4.252a11.161,11.161,0,0,1,.255-1.105.527.527,0,0,1-.17-.34Z" transform="translate(-1025.974 -216.496)" fill="#445964"/>
      <path id="Path_468" data-name="Path 468" d="M1033.421,498.5v1.531c0,1.02-.085,2.466-.256,4.252-.17,3.571-.6,8.5-.935,13.946-.425,5.442-.765,10.374-1.02,13.946-.085,1.7-.255,3.146-.255,4.252-.085,1.021-.085,1.531-.17,1.531a4.567,4.567,0,0,1-.085-1.531c0-1.021.085-2.466.17-4.252.085-3.572.425-8.5.85-13.946.425-5.357.85-10.289,1.106-13.946.17-1.7.255-3.146.34-4.252.17-.935.255-1.531.255-1.531Z" transform="translate(-1021.813 -235.113)" fill="#445964"/>
      <path id="Path_469" data-name="Path 469" d="M1087.546,209.543c-1.531-1.616-3.4-3.146-3.912-5.357-.51-2.041.255-4.252-.851-6.038-1.275-2.211-4.507-2.381-6.037-4.337-.765-.935-1.02-2.3-1.785-3.231-1.276-1.7-3.657-2.041-5.7-1.7-2.041.255-4.082,1.106-6.123,1.276-2.806.255-5.782-.6-8.5.34-2.976,1.02-4.762,3.742-6.633,6.378l-2.466,3.061a9.5,9.5,0,0,1-1.7,1.446,20.868,20.868,0,0,0-3.146,2.211,5.082,5.082,0,0,0,.6,7.313,5.45,5.45,0,0,0-3.487,5.442,13.957,13.957,0,0,0,1.105,3.656,5.682,5.682,0,0,1,.255,3.742,2.361,2.361,0,0,1-3.061,1.446,5.558,5.558,0,0,0,3.232,3.656,3.273,3.273,0,0,1-2.211,1.105c2.466,5.357,8.844,7.993,14.8,7.823,5.867-.17,11.479-2.551,16.837-4.932l15.731-4.677c1.361-.34,1.871-2.041,1.871-3.486-.085-1.446-.51-2.891,0-4.252.68-1.871,2.721-2.891,3.4-4.762.68-2.211-.68-4.507-2.211-6.122Z" transform="translate(-1022.621 -188.761)" fill="#081623"/>
      <path id="Path_470" data-name="Path 470" d="M1052.267,227.176a61.2,61.2,0,0,1-3.146-10.884,21.827,21.827,0,0,1,.595-11.225c.17-.51,1.786-4.167,2.3-4.167.425,0-.51,3.4-.34,3.742a19.288,19.288,0,0,1,2.466,11.31,42.473,42.473,0,0,1-1.871,11.225Z" transform="translate(-1024.502 -190.577)" fill="#081623"/>
      <path id="Path_471" data-name="Path 471" d="M1066.8,193.6h-.851c-9.439.34-14.456,8.589-13.861,18.028l.255,32.654a11.225,11.225,0,0,0,10.544,11.055,11.1,11.1,0,0,0,11.565-10.8c.085-1.7.085-2.891.085-2.891s9.1-1.19,9.439-10.289c.17-4.422-.255-13.436-.68-21.684a17.019,17.019,0,0,0-16.5-16.072Z" transform="translate(-1025.007 -189.485)" fill="#fed2b1"/>
      <path id="Path_472" data-name="Path 472" d="M1076.335,249.427A22.12,22.12,0,0,1,1064.6,245.6s2.551,6.718,11.65,6.123Z" transform="translate(-1026.886 -197.267)" fill="#eb996e"/>
      <path id="Path_473" data-name="Path 473" d="M1085.651,220.991a1.308,1.308,0,0,1-1.276,1.276,1.185,1.185,0,0,1-1.276-1.19,1.308,1.308,0,0,1,1.276-1.276,1.235,1.235,0,0,1,1.276,1.191Z" transform="translate(-1029.654 -193.406)" fill="#081623"/>
      <path id="Path_474" data-name="Path 474" d="M1085.5,216.546c-.17.17-1.106-.6-2.551-.6-1.36-.085-2.466.6-2.551.425-.085-.085.085-.425.6-.68a3.585,3.585,0,0,1,4.081.085c.341.425.511.765.426.765Z" transform="translate(-1029.246 -192.702)" fill="#081623"/>
      <path id="Path_475" data-name="Path 475" d="M1069.851,220.991a1.308,1.308,0,0,1-1.276,1.276,1.235,1.235,0,0,1-1.275-1.19,1.308,1.308,0,0,1,1.275-1.276,1.236,1.236,0,0,1,1.276,1.191Z" transform="translate(-1027.291 -193.406)" fill="#081623"/>
      <path id="Path_476" data-name="Path 476" d="M1069.4,216.846c-.17.17-1.106-.6-2.551-.6-1.36-.085-2.466.68-2.551.425-.085-.085.085-.34.6-.68a3.628,3.628,0,0,1,2.041-.6,3.446,3.446,0,0,1,2.041.765c.34.34.51.6.425.68Z" transform="translate(-1026.837 -192.747)" fill="#081623"/>
      <path id="Path_477" data-name="Path 477" d="M1075.824,227.864a6.727,6.727,0,0,1,2.3-.34c.34,0,.68-.085.765-.34s-.085-.6-.255-1.02c-.34-.85-.68-1.786-1.021-2.721a68.724,68.724,0,0,1-2.211-7.143c.17-.085,1.361,3.061,2.807,6.973.34.935.6,1.871.935,2.806a2.424,2.424,0,0,1,.17,1.361.9.9,0,0,1-.6.51,1.656,1.656,0,0,1-.595.085,12.912,12.912,0,0,1-2.3-.17Z" transform="translate(-1028.501 -192.882)" fill="#081623"/>
      <path id="Path_478" data-name="Path 478" d="M1070.966,230.9c.255,0,.17,1.531,1.446,2.636s2.891,1.02,2.891,1.19c0,.085-.341.255-1.021.255a3.705,3.705,0,0,1-2.381-.935,3.076,3.076,0,0,1-1.105-2.211c-.085-.51.085-.935.17-.935Z" transform="translate(-1027.81 -195.067)" fill="#081623"/>
      <path id="Path_479" data-name="Path 479" d="M1069.29,210.217c-.17.425-1.531.17-3.146.34-1.615.085-2.976.6-3.146.255-.085-.17.17-.51.68-.85a5.607,5.607,0,0,1,2.381-.765,5.241,5.241,0,0,1,2.466.34c.51.255.765.51.765.68Z" transform="translate(-1026.644 -191.815)" fill="#081623"/>
      <path id="Path_480" data-name="Path 480" d="M1084.973,211.131c-.255.34-1.19-.085-2.381-.085-1.105-.085-2.126.17-2.3-.17-.085-.17.085-.51.51-.765a3.851,3.851,0,0,1,1.956-.51,3.75,3.75,0,0,1,1.871.68c.34.34.51.68.34.85Z" transform="translate(-1029.232 -191.879)" fill="#081623"/>
      <path id="Path_481" data-name="Path 481" d="M1051.622,222.638c-.17-.085-6.207-2.041-6.122,4.252.085,6.208,6.292,4.932,6.292,4.762s-.17-9.014-.17-9.014Z" transform="translate(-1024.028 -193.777)" fill="#fed2b1"/>
      <path id="Path_482" data-name="Path 482" d="M1050.117,229.632a1.06,1.06,0,0,1-.255.17.808.808,0,0,1-.765,0,2.76,2.76,0,0,1-1.276-2.381,4.107,4.107,0,0,1,.255-1.531,1.53,1.53,0,0,1,.765-.85.587.587,0,0,1,.68.255.641.641,0,0,1,.085.34s.17-.085.085-.34a.776.776,0,0,0-.255-.425.718.718,0,0,0-.6-.17,1.49,1.49,0,0,0-1.106,1.02,2.93,2.93,0,0,0-.34,1.7,2.747,2.747,0,0,0,1.616,2.636,1.317,1.317,0,0,0,1.02-.17.419.419,0,0,0,.085-.255Z" transform="translate(-1024.309 -194.139)" fill="#eb996e"/>
      <path id="Path_483" data-name="Path 483" d="M1078.573,199.2c1.02-.6-2.041-3.827-4.592-4.847-3.741-1.616-9.439-2.636-12.925-1.531-4.082,1.276-7.568,3.4-9.609,7.143a24.659,24.659,0,0,0-2.551,12.585,8.476,8.476,0,0,0,.935,3.827c.85,1.361,2.551,2.211,2.466,4.082a2.557,2.557,0,0,0,.681,1.871c1.19,1.19,2.551,0,3.146-1.105,1.36-2.466,1.445-5.357,1.531-8.163a17.5,17.5,0,0,0-.51-5.952c-.34-1.02-.85-2.041-1.105-3.061a3.757,3.757,0,0,1,.425-3.146,1.443,1.443,0,0,1,.51-.51,6.674,6.674,0,0,1,6.378-1.361c3.486,1.19,9.524,2.976,11.054,1.7a9.888,9.888,0,0,0,2.721-2.891Z" transform="translate(-1024.532 -189.299)" fill="#081623"/>
      <path id="Path_484" data-name="Path 484" d="M1062.2,191.651a13.734,13.734,0,0,1,10.544.425,7.218,7.218,0,0,1,3.827,4.082,4.156,4.156,0,0,1-1.956,4.847l-.085.085c-2.636.935-4.337.6-6.973-.255-2.211-.765-4.252-2.041-6.462-2.806a12.209,12.209,0,0,0-7.4-.085,20.293,20.293,0,0,1,8.5-6.293Z" transform="translate(-1025.255 -189.067)" fill="#081623"/>
      <path id="Path_485" data-name="Path 485" d="M1036.666,304.619c-.34,7.653-2.466,51.276-2.466,51.276a74.319,74.319,0,0,0,31.038,3.231c16.667-2.041,23.725,1.105,23.725,1.105l-4.932-76.191-12.5-29.082s-17.432-2.381-22.024-1.871a35.667,35.667,0,0,0-4.677,3.486c-4.677,5.357-7.823,16.667-7.994,26.106Z" transform="translate(-1022.336 -198.376)" fill="#2fbe6e"/>
      <path id="Path_486" data-name="Path 486" d="M1065.631,291.1c-4.592-3.912-10.885-2.211-14.031-7.4a155.419,155.419,0,0,0,12.755,25.17,3.455,3.455,0,0,0,1.191,1.276c1.191.51,2.381-.68,3.486-1.446,2.041-1.276,4.847-.935,6.973.085a42.059,42.059,0,0,1,5.953,4.252c1.956,1.446,4.252,2.721,6.718,2.636a153.414,153.414,0,0,0-23.045-24.575Z" transform="translate(-1024.941 -202.968)" fill="#081623" opacity="0.25"/>
      <g id="Group_326" data-name="Group 326" transform="translate(46.473 47.81)">
        <path id="Path_487" data-name="Path 487" d="M1087.74,283.827l11.65,10.714,12.67-28.742,10.714,3.571s-11.479,42.6-14.456,45.834c-4.082,4.422-10.8,3.827-14.286.765-4-3.571-19.133-18.453-19.133-18.453Z" transform="translate(-1074.9 -248.099)" fill="#fed2b1"/>
        <path id="Path_488" data-name="Path 488" d="M1103.74,306.613a13.692,13.692,0,0,1-.34-3.657,11.81,11.81,0,0,1,.425-3.657c.17,0,.085,1.616,0,3.657a27.8,27.8,0,0,1-.085,3.657Z" transform="translate(-1079.165 -253.113)" fill="#eb996e"/>
        <path id="Path_489" data-name="Path 489" d="M1117.9,265.491l2.21-14.371a1.654,1.654,0,0,1,.766-1.191l.935-.765s-.085-.17,1.616-2.381,4.082-2.211,4.762-.935c0,0,3.146-1.616,3.912.68.425,1.361-.851,3.146-.851,3.146s2.976.935,1.786,4.592c0,0,1.615,0,.084,3.912-.595,1.7-5.017,10.544-5.017,10.544Z" transform="translate(-1081.335 -244.985)" fill="#fed2b1"/>
        <path id="Path_490" data-name="Path 490" d="M1108.291,254.689a1.133,1.133,0,0,0,1.531.68l14.8-6.378,1.956-2.891-17.6,7.228a1.046,1.046,0,0,0-.68,1.361Z" transform="translate(-1079.889 -245.151)" fill="#081623"/>
        <path id="Path_491" data-name="Path 491" d="M1133.66,249.1a8.556,8.556,0,0,1-1.19,2.466c-.765,1.361-1.7,2.211-1.871,2.041a24.11,24.11,0,0,1,1.445-2.3,15.57,15.57,0,0,1,1.615-2.211Z" transform="translate(-1083.234 -245.6)" fill="#eb996e"/>
        <path id="Path_492" data-name="Path 492" d="M1125.1,252.037a15.721,15.721,0,0,1,1.87-3.146A16.632,16.632,0,0,1,1129.18,246a15.7,15.7,0,0,1-1.87,3.146,16.627,16.627,0,0,1-2.211,2.891Z" transform="translate(-1082.411 -245.136)" fill="#eb996e"/>
        <path id="Path_493" data-name="Path 493" d="M1134.2,257.454c-.085-.085.255-.51.51-1.02.34-.51.6-1.02.68-.935.086,0,.086.6-.255,1.191-.34.51-.85.85-.935.765Z" transform="translate(-1083.771 -246.556)" fill="#eb996e"/>
      </g>
      <path id="Path_494" data-name="Path 494" d="M1085.275,281.351l-18.963,19.983c-6.973-6.633-13.265-17.177-16.5-26.021a18.037,18.037,0,0,1-.6-9.949c.766-2.891,1.7-3.742,3.742-5.442,0,0,6.123-4.932,14.626,2.636,5.187,4.592,17.687,18.793,17.687,18.793Z" transform="translate(-1024.516 -199.173)" fill="#2fbe6e"/>
      <path id="Path_495" data-name="Path 495" d="M1085.205,281.342l-.255-.255c-.17-.17-.34-.425-.595-.68-.6-.6-1.36-1.446-2.3-2.466-2.041-2.211-4.933-5.357-8.589-9.184-1.871-1.871-3.827-4-6.208-6.122a21.374,21.374,0,0,0-3.911-2.721,11.448,11.448,0,0,0-4.847-1.361,9.218,9.218,0,0,0-5.1,1.19,9.746,9.746,0,0,0-3.657,4,14.3,14.3,0,0,0-.765,2.721,11.02,11.02,0,0,0-.17,2.891,20.255,20.255,0,0,0,1.02,5.867,76.787,76.787,0,0,0,7.4,14.711,62.938,62.938,0,0,0,9.1,11.395h-.255c5.7-5.953,10.459-10.97,13.861-14.456,1.7-1.7,2.976-3.061,3.911-4.082l1.02-1.02a4.958,4.958,0,0,1,.341-.425l-.34.34-1.02,1.021c-.85.935-2.211,2.3-3.826,4.082-3.317,3.572-8.078,8.589-13.776,14.626l-.085.17-.17-.085A63.222,63.222,0,0,1,1056.8,290.1a82.247,82.247,0,0,1-7.483-14.711,20.843,20.843,0,0,1-1.02-5.952,17.48,17.48,0,0,1,.17-2.976,11.784,11.784,0,0,1,.85-2.806,9.06,9.06,0,0,1,1.616-2.381,10.2,10.2,0,0,1,1.02-.935l.51-.425c.17-.17.425-.255.6-.425a9.621,9.621,0,0,1,5.272-1.19,11.9,11.9,0,0,1,4.932,1.446,19.732,19.732,0,0,1,4,2.806c2.3,2.126,4.337,4.252,6.208,6.123,3.656,3.912,6.548,7.058,8.5,9.269q1.4,1.658,2.3,2.551c.255.255.425.51.595.68.341,0,.426.17.341.17Z" transform="translate(-1024.447 -199.165)" fill="#081623"/>
    </g>
    <g id="Group_325" data-name="Group 325" transform="translate(360.53 216.05)">
      <path id="Path_412" data-name="Path 412" d="M1498.8,333.1c-11.775,6.187-20.956,16.765-27.442,28.34-6.486,11.675-10.777,24.349-14.869,37.022l-3.692,65.362c13.771-23.45,24.848-50.992,27.841-78.035-3.094-.3-6.088-.5-9.181-.8,6.187-.9,11.276-5.389,14.569-10.677s4.989-11.376,6.586-17.363c-3.692.5-7.485,1.1-11.176,1.7A42.074,42.074,0,0,0,1498.8,333.1Z" transform="translate(-1385.243 -327.612)" fill="#445964"/>
      <path id="Path_413" data-name="Path 413" d="M1498.8,333.1c-11.775,6.187-20.956,16.765-27.442,28.34-6.486,11.675-10.777,24.349-14.869,37.022l-3.692,65.362c13.771-23.45,24.848-50.992,27.841-78.035-3.094-.3-6.088-.5-9.181-.8,6.187-.9,11.276-5.389,14.569-10.677s4.989-11.376,6.586-17.363c-3.692.5-7.485,1.1-11.176,1.7A42.074,42.074,0,0,0,1498.8,333.1Z" transform="translate(-1385.243 -327.612)" fill="#2fbe6e"/>
      <path id="Path_414" data-name="Path 414" d="M1498.8,333.1c-11.775,6.187-20.956,16.765-27.442,28.34-6.486,11.675-10.777,24.349-14.869,37.022l-3.692,65.362c13.771-23.45,24.848-50.992,27.841-78.035-3.094-.3-6.088-.5-9.181-.8,6.187-.9,11.276-5.389,14.569-10.677s4.989-11.376,6.586-17.363c-3.692.5-7.485,1.1-11.176,1.7A42.074,42.074,0,0,0,1498.8,333.1Z" transform="translate(-1385.243 -327.612)" fill="#081623" opacity="0.5"/>
      <path id="Path_415" data-name="Path 415" d="M1450.637,479.08S1420.7,443.256,1421,409.128h12.075S1419.9,400.546,1421,395.656c1-4.79,1.4-23.151,1.4-23.151l11.076,2.694s-8.283-4.091-9.38-10.677c-1-6.586,2.4-36.922,2.4-36.922s13.472,14.17,17.563,28.639,15.068,31.434,11.775,75.64-5.189,47.2-5.189,47.2Z" transform="translate(-1385.175 -327.6)" fill="#2fbe6e"/>
      <path id="Path_416" data-name="Path 416" d="M1465.9,482.555s32.431-21.554,39.617-49.1l-9.78-2.595s12.474-4.091,12.673-8.183,3.892-18.86,3.892-18.86l-9.48-.2s7.584-1.5,9.879-6.586,6.187-30.236,6.187-30.236-13.871,8.382-20.457,19.16c-6.487,10.777-18.96,21.954-26.045,58.177s-6.486,38.419-6.486,38.419Z" transform="translate(-1385.27 -327.683)" fill="#2fbe6e"/>
      <path id="Path_417" data-name="Path 417" d="M1434.8,358.9a.583.583,0,0,1,.1.4,8.147,8.147,0,0,1,.3,1.1c.2,1,.5,2.395,1,4.291.4,1.8.9,4.091,1.4,6.686s1.2,5.588,1.8,8.981c1.3,6.586,2.594,14.569,3.991,23.351s2.694,18.561,3.892,28.839,2.1,20.058,2.794,28.939,1.2,16.964,1.4,23.75c.1,3.393.2,6.386.3,9.081s.1,4.989.2,6.885c0,1.9,0,3.293.1,4.391v1.1a4.467,4.467,0,0,0-.1-1.1c0-1-.1-2.495-.1-4.391-.1-1.9-.1-4.191-.3-6.885-.1-2.694-.2-5.788-.4-9.081-.3-6.786-.9-14.769-1.6-23.75-.7-8.881-1.6-18.661-2.794-28.939s-2.495-19.958-3.892-28.839c-1.4-8.782-2.694-16.765-3.892-23.351-.6-3.293-1.2-6.287-1.7-8.981-.5-2.595-1-4.89-1.3-6.786-.4-1.8-.7-3.293-.9-4.291a6.473,6.473,0,0,1-.2-1.1.492.492,0,0,1-.1-.3Z" transform="translate(-1385.205 -327.666)" fill="#081623"/>
      <path id="Path_418" data-name="Path 418" d="M1446.47,501.224s-27.342-31.034-35.824-49.795l6.386-2.694c-4.69.8-9.38-1.2-13.072-4.291-3.592-3.094-6.287-7.085-8.881-10.977l8.482-1.4A31.523,31.523,0,0,1,1385.1,417.8c9.979,1.6,18.96,7.085,26.444,13.97a135.017,135.017,0,0,1,15.966,18.561,58.987,58.987,0,0,1,6.187,10.179c4.69,9.38,12.773,29.338,12.773,40.714Z" transform="translate(-1385.1 -327.79)" fill="#2fbe6e"/>
      <path id="Path_419" data-name="Path 419" d="M1505.9,384.8a.773.773,0,0,1-.1.3c-.1.2-.2.5-.4.9-.4.8-.9,2-1.7,3.493-1.5,2.994-3.493,7.284-6.087,12.673-2.495,5.389-5.388,11.775-8.582,19.06-3.093,7.185-6.386,15.168-9.679,23.65s-6.187,16.565-8.782,24.049-4.69,14.17-6.486,19.858-3.093,10.278-4.092,13.471c-.5,1.6-.8,2.794-1.1,3.692-.1.4-.2.7-.3,1a.772.772,0,0,0-.1.3.772.772,0,0,1,.1-.3c.1-.2.1-.5.3-1,.2-.9.6-2.1,1-3.692.9-3.193,2.2-7.883,3.892-13.571s3.892-12.374,6.386-19.858c2.594-7.484,5.488-15.567,8.782-24.049s6.586-16.465,9.679-23.65,6.087-13.671,8.682-18.96c2.594-5.389,4.69-9.68,6.187-12.573.8-1.5,1.3-2.594,1.8-3.393.2-.4.4-.7.5-.9a2.8,2.8,0,0,0,.1-.5Z" transform="translate(-1385.255 -327.721)" fill="#081623"/>
      <path id="Path_420" data-name="Path 420" d="M1448.858,514.588a1.451,1.451,0,0,1-.1-.6,14.236,14.236,0,0,0-.3-1.6c-.1-.7-.2-1.6-.4-2.595s-.4-2.2-.6-3.493c-.5-2.594-1.2-5.588-2.1-8.781-.9-3.293-2.1-6.885-3.493-10.578s-2.895-7.185-4.391-10.278-2.994-5.788-4.292-7.983c-.6-1.1-1.3-2.1-1.8-2.994s-1-1.6-1.4-2.2a15.083,15.083,0,0,1-.9-1.4,5.223,5.223,0,0,1-.3-.5,5.7,5.7,0,0,1,.4.5,10.423,10.423,0,0,1,1,1.4c.4.6.9,1.3,1.5,2.2s1.2,1.8,1.9,2.994a79.741,79.741,0,0,1,4.391,7.983c1.5,3.093,3.094,6.486,4.49,10.278a108.746,108.746,0,0,1,3.393,10.678,82.53,82.53,0,0,1,2,8.881c.3,1.3.4,2.395.6,3.493a13.768,13.768,0,0,1,.3,2.594c.1.7.1,1.2.2,1.7a.494.494,0,0,0-.1.3Z" transform="translate(-1385.192 -327.882)" fill="#081623"/>
      <rect id="Rectangle_508" data-name="Rectangle 508" width="59.874" height="12.174" transform="translate(39.815 179.421)" fill="#081623"/>
      <path id="Path_421" data-name="Path 421" d="M1430.8,519.6l6.486,41.113h36.124L1479.5,519.6Z" transform="translate(-1385.197 -328.005)" fill="#081623"/>
      <path id="Path_422" data-name="Path 422" d="M1481.293,519.6c0,.1-11.376.3-25.346.3s-25.346-.1-25.346-.3,11.376-.3,25.346-.3c13.97.1,25.346.2,25.346.3Z" transform="translate(-1385.196 -328.004)" fill="#445964"/>
    </g>
  </g>
</svg>
